<?xml version="1.0" standalone="no"?>
<!DOCTYPE svg PUBLIC "-//W3C//DTD SVG 1.1//EN"
  "http://www.w3.org/Graphics/SVG/1.1/DTD/svg11.dtd">
<!-- Created with matplotlib (http://matplotlib.sourceforge.net/) -->
<svg width="576pt" height="414pt" viewBox="0 0 576 414"
   xmlns="http://www.w3.org/2000/svg"
   xmlns:xlink="http://www.w3.org/1999/xlink"
   version="1.1"
   id="svg1">
<filter id="colorAdd"><feComposite in="SourceGraphic" in2="BackgroundImage" operator="arithmetic" k2="1" k3="1"/></filter>
<g id="figure1">
<g id="patch1">
<path style="fill: #ffffff; stroke: #ffffff; stroke-width: 1.000000; stroke-linejoin: round; stroke-linecap: square;  opacity: 1.000000"  d="M0.000000 414.000000L576.000000 414.000000L576.000000 0.000000
L0.000000 0.000000z"/>
</g>
<g id="axes1">
<g id="patch2">
<path style="fill: #ffffff; opacity: 1.000000"  d="M72.000000 372.600000L518.400000 372.600000L518.400000 41.400000
L72.000000 41.400000z"/>
</g>
<g id="line2d1">
<defs>
  <clipPath id="pa1c4bc77803ce9892ec4efe71a4933c0">
<rect x="72.000000" y="41.400000" width="446.400000" height="331.200000"/>
  </clipPath>
</defs><path style="fill: none; stroke: #0000ff; stroke-width: 1.000000; stroke-linejoin: round; stroke-linecap: square;  opacity: 1.000000" clip-path="url(#pa1c4bc77803ce9892ec4efe71a4933c0)" d="M72.000000 372.600000L87.393103 340.232727L102.786207 320.969752
L118.179310 300.592201L133.572414 282.272989L148.965517 263.329324
L164.358621 244.206981L179.751724 227.402499L195.144828 210.714292
L210.537931 194.465402L225.931034 178.926402L241.324138 162.879848
L256.717241 148.319876L272.110345 133.041720L287.503448 119.069401
L302.896552 104.211389L318.289655 90.174259L333.682759 78.143735
L349.075862 63.297582L364.468966 51.852141L379.862069 47.898326
L395.255172 45.754916L410.648276 45.540000L426.041379 45.540000
L441.434483 45.540000L456.827586 45.540000L472.220690 45.540000
L487.613793 45.540000L503.006897 45.540000L518.400000 45.540000"/>
</g>
<g id="matplotlib.axis1">
<g id="xtick1">
<g id="line2d2">
<defs><path id="m30e32995789d870ad79a2e54c91cf9c6" d="M0.000000 0.000000L0.000000 -4.000000"/></defs>
<g ><use style="fill: none; stroke: #000000; stroke-width: 0.500000; stroke-linejoin: round; stroke-linecap: butt;  opacity: 1.000000" xlink:href="#m30e32995789d870ad79a2e54c91cf9c6" x="72.000000" y="372.600000"/>
</g></g>
<g id="line2d3">
<defs><path id="m9281cae24120827b11d5ea8a7ad3e96b" d="M0.000000 0.000000L0.000000 4.000000"/></defs>
<g ><use style="fill: none; stroke: #000000; stroke-width: 0.500000; stroke-linejoin: round; stroke-linecap: butt;  opacity: 1.000000" xlink:href="#m9281cae24120827b11d5ea8a7ad3e96b" x="72.000000" y="41.400000"/>
</g></g>
<g id="text1">
<defs>
<path id="c_c63e313c3da876077b62561e94932799" d="M4.156250 -35.296875q0.000000 -12.703125 2.609375 -20.437500q2.609375 -7.750000 7.750000 -11.937500q5.156250 -4.203125 12.968750 -4.203125q5.765625 0.000000 10.109375 2.328125q4.343750 2.312500 7.171875 6.687500q2.843750 4.359375 4.453125 10.640625q1.609375 6.265625 1.609375 16.921875q0.000000 12.593750 -2.593750 20.328125q-2.578125 7.734375 -7.734375 11.968750q-5.140625 4.218750 -13.015625 4.218750q-10.343750 0.000000 -16.250000 -7.421875q-7.078125 -8.937500 -7.078125 -29.093750M13.187500 -35.296875q0.000000 17.625000 4.125000 23.468750q4.125000 5.828125 10.171875 5.828125q6.062500 0.000000 10.187500 -5.859375q4.125000 -5.859375 4.125000 -23.437500q0.000000 -17.687500 -4.125000 -23.484375q-4.125000 -5.812500 -10.281250 -5.812500q-6.046875 0.000000 -9.671875 5.125000q-4.531250 6.531250 -4.531250 24.171875"/>
<path id="c_9c88a63538c7a98452673de38f845635" d="M9.078125 -0.000000l0.000000 -10.015625l10.015625 0.000000l0.000000 10.015625z"/>
<path id="c_75f775bc9f9a6adfab5172fd551e47e0" d="M4.156250 -18.750000l9.218750 -0.781250q1.031250 6.734375 4.765625 10.140625q3.734375 3.390625 9.015625 3.390625q6.343750 0.000000 10.734375 -4.781250q4.390625 -4.796875 4.390625 -12.703125q0.000000 -7.515625 -4.218750 -11.859375q-4.218750 -4.359375 -11.062500 -4.359375q-4.250000 0.000000 -7.671875 1.937500q-3.406250 1.921875 -5.359375 5.000000l-8.250000 -1.078125l6.921875 -36.765625l35.609375 0.000000l0.000000 8.406250l-28.578125 0.000000l-3.843750 19.234375q6.437500 -4.500000 13.515625 -4.500000q9.375000 0.000000 15.812500 6.500000q6.453125 6.500000 6.453125 16.703125q0.000000 9.718750 -5.656250 16.796875q-6.890625 8.687500 -18.796875 8.687500q-9.765625 0.000000 -15.953125 -5.468750q-6.171875 -5.468750 -7.046875 -14.500000"/>
</defs>
<g style="fill: #000000; opacity: 1.000000" transform="translate(60.820312,385.225000)scale(0.120000)">
<use xlink:href="#c_c63e313c3da876077b62561e94932799"/>
<use xlink:href="#c_9c88a63538c7a98452673de38f845635" x="55.615234"/>
<use xlink:href="#c_c63e313c3da876077b62561e94932799" x="83.398437"/>
<use xlink:href="#c_75f775bc9f9a6adfab5172fd551e47e0" x="139.013672"/>
</g>
</g>
</g>
<g id="xtick2">
<g id="line2d4">
<g ><use style="fill: none; stroke: #000000; stroke-width: 0.500000; stroke-linejoin: round; stroke-linecap: butt;  opacity: 1.000000" xlink:href="#m30e32995789d870ad79a2e54c91cf9c6" x="121.600000" y="372.600000"/>
</g></g>
<g id="line2d5">
<g ><use style="fill: none; stroke: #000000; stroke-width: 0.500000; stroke-linejoin: round; stroke-linecap: butt;  opacity: 1.000000" xlink:href="#m9281cae24120827b11d5ea8a7ad3e96b" x="121.600000" y="41.400000"/>
</g></g>
<g id="text2">
<defs>
<path id="c_72c59cf671978aab4f9757f107511077" d="M37.250000 -0.000000l-8.781250 0.000000l0.000000 -56.000000q-3.171875 3.015625 -8.328125 6.046875q-5.156250 3.031250 -9.250000 4.546875l0.000000 -8.500000q7.375000 -3.468750 12.890625 -8.390625q5.515625 -4.937500 7.812500 -9.578125l5.656250 0.000000z"/>
</defs>
<g style="fill: #000000; opacity: 1.000000" transform="translate(110.467187,385.225000)scale(0.120000)">
<use xlink:href="#c_c63e313c3da876077b62561e94932799"/>
<use xlink:href="#c_9c88a63538c7a98452673de38f845635" x="55.615234"/>
<use xlink:href="#c_72c59cf671978aab4f9757f107511077" x="83.398437"/>
<use xlink:href="#c_c63e313c3da876077b62561e94932799" x="139.013672"/>
</g>
</g>
</g>
<g id="xtick3">
<g id="line2d6">
<g ><use style="fill: none; stroke: #000000; stroke-width: 0.500000; stroke-linejoin: round; stroke-linecap: butt;  opacity: 1.000000" xlink:href="#m30e32995789d870ad79a2e54c91cf9c6" x="171.200000" y="372.600000"/>
</g></g>
<g id="line2d7">
<g ><use style="fill: none; stroke: #000000; stroke-width: 0.500000; stroke-linejoin: round; stroke-linecap: butt;  opacity: 1.000000" xlink:href="#m9281cae24120827b11d5ea8a7ad3e96b" x="171.200000" y="41.400000"/>
</g></g>
<g id="text3">
<g style="fill: #000000; opacity: 1.000000" transform="translate(160.020313,385.225000)scale(0.120000)">
<use xlink:href="#c_c63e313c3da876077b62561e94932799"/>
<use xlink:href="#c_9c88a63538c7a98452673de38f845635" x="55.615234"/>
<use xlink:href="#c_72c59cf671978aab4f9757f107511077" x="83.398437"/>
<use xlink:href="#c_75f775bc9f9a6adfab5172fd551e47e0" x="139.013672"/>
</g>
</g>
</g>
<g id="xtick4">
<g id="line2d8">
<g ><use style="fill: none; stroke: #000000; stroke-width: 0.500000; stroke-linejoin: round; stroke-linecap: butt;  opacity: 1.000000" xlink:href="#m30e32995789d870ad79a2e54c91cf9c6" x="220.800000" y="372.600000"/>
</g></g>
<g id="line2d9">
<g ><use style="fill: none; stroke: #000000; stroke-width: 0.500000; stroke-linejoin: round; stroke-linecap: butt;  opacity: 1.000000" xlink:href="#m9281cae24120827b11d5ea8a7ad3e96b" x="220.800000" y="41.400000"/>
</g></g>
<g id="text4">
<defs>
<path id="c_a7ec7f1581c48e6603ad54008c14207a" d="M50.343750 -8.453125l0.000000 8.453125l-47.312500 0.000000q-0.093750 -3.171875 1.015625 -6.109375q1.812500 -4.828125 5.781250 -9.515625q3.984375 -4.687500 11.515625 -10.843750q11.671875 -9.562500 15.765625 -15.156250q4.109375 -5.593750 4.109375 -10.578125q0.000000 -5.218750 -3.750000 -8.796875q-3.734375 -3.593750 -9.734375 -3.593750q-6.343750 0.000000 -10.156250 3.812500q-3.812500 3.796875 -3.859375 10.531250l-9.031250 -0.921875q0.921875 -10.109375 6.968750 -15.406250q6.062500 -5.296875 16.281250 -5.296875q10.296875 0.000000 16.296875 5.718750q6.015625 5.703125 6.015625 14.156250q0.000000 4.296875 -1.765625 8.453125q-1.750000 4.140625 -5.828125 8.734375q-4.078125 4.593750 -13.546875 12.593750q-7.921875 6.640625 -10.171875 9.015625q-2.234375 2.359375 -3.703125 4.750000z"/>
</defs>
<g style="fill: #000000; opacity: 1.000000" transform="translate(209.667188,385.225000)scale(0.120000)">
<use xlink:href="#c_c63e313c3da876077b62561e94932799"/>
<use xlink:href="#c_9c88a63538c7a98452673de38f845635" x="55.615234"/>
<use xlink:href="#c_a7ec7f1581c48e6603ad54008c14207a" x="83.398437"/>
<use xlink:href="#c_c63e313c3da876077b62561e94932799" x="139.013672"/>
</g>
</g>
</g>
<g id="xtick5">
<g id="line2d10">
<g ><use style="fill: none; stroke: #000000; stroke-width: 0.500000; stroke-linejoin: round; stroke-linecap: butt;  opacity: 1.000000" xlink:href="#m30e32995789d870ad79a2e54c91cf9c6" x="270.400000" y="372.600000"/>
</g></g>
<g id="line2d11">
<g ><use style="fill: none; stroke: #000000; stroke-width: 0.500000; stroke-linejoin: round; stroke-linecap: butt;  opacity: 1.000000" xlink:href="#m9281cae24120827b11d5ea8a7ad3e96b" x="270.400000" y="41.400000"/>
</g></g>
<g id="text5">
<g style="fill: #000000; opacity: 1.000000" transform="translate(259.220312,385.225000)scale(0.120000)">
<use xlink:href="#c_c63e313c3da876077b62561e94932799"/>
<use xlink:href="#c_9c88a63538c7a98452673de38f845635" x="55.615234"/>
<use xlink:href="#c_a7ec7f1581c48e6603ad54008c14207a" x="83.398437"/>
<use xlink:href="#c_75f775bc9f9a6adfab5172fd551e47e0" x="139.013672"/>
</g>
</g>
</g>
<g id="xtick6">
<g id="line2d12">
<g ><use style="fill: none; stroke: #000000; stroke-width: 0.500000; stroke-linejoin: round; stroke-linecap: butt;  opacity: 1.000000" xlink:href="#m30e32995789d870ad79a2e54c91cf9c6" x="320.000000" y="372.600000"/>
</g></g>
<g id="line2d13">
<g ><use style="fill: none; stroke: #000000; stroke-width: 0.500000; stroke-linejoin: round; stroke-linecap: butt;  opacity: 1.000000" xlink:href="#m9281cae24120827b11d5ea8a7ad3e96b" x="320.000000" y="41.400000"/>
</g></g>
<g id="text6">
<defs>
<path id="c_fda0a0109e2b7adfa5e482b9b2d320ee" d="M4.203125 -18.890625l8.781250 -1.171875q1.515625 7.468750 5.156250 10.765625q3.640625 3.296875 8.859375 3.296875q6.203125 0.000000 10.468750 -4.296875q4.281250 -4.296875 4.281250 -10.656250q0.000000 -6.046875 -3.953125 -9.968750q-3.953125 -3.937500 -10.062500 -3.937500q-2.484375 0.000000 -6.203125 0.968750l0.984375 -7.718750q0.875000 0.109375 1.406250 0.109375q5.625000 0.000000 10.109375 -2.921875q4.500000 -2.937500 4.500000 -9.046875q0.000000 -4.828125 -3.281250 -8.000000q-3.265625 -3.187500 -8.437500 -3.187500q-5.125000 0.000000 -8.546875 3.234375q-3.421875 3.218750 -4.390625 9.656250l-8.796875 -1.562500q1.609375 -8.828125 7.312500 -13.687500q5.718750 -4.859375 14.218750 -4.859375q5.859375 0.000000 10.781250 2.515625q4.937500 2.515625 7.546875 6.859375q2.625000 4.343750 2.625000 9.234375q0.000000 4.625000 -2.500000 8.437500q-2.484375 3.812500 -7.359375 6.062500q6.343750 1.453125 9.859375 6.078125q3.515625 4.609375 3.515625 11.546875q0.000000 9.375000 -6.843750 15.890625q-6.828125 6.515625 -17.281250 6.515625q-9.421875 0.000000 -15.656250 -5.609375q-6.218750 -5.625000 -7.093750 -14.546875"/>
</defs>
<g style="fill: #000000; opacity: 1.000000" transform="translate(308.867187,385.225000)scale(0.120000)">
<use xlink:href="#c_c63e313c3da876077b62561e94932799"/>
<use xlink:href="#c_9c88a63538c7a98452673de38f845635" x="55.615234"/>
<use xlink:href="#c_fda0a0109e2b7adfa5e482b9b2d320ee" x="83.398437"/>
<use xlink:href="#c_c63e313c3da876077b62561e94932799" x="139.013672"/>
</g>
</g>
</g>
<g id="xtick7">
<g id="line2d14">
<g ><use style="fill: none; stroke: #000000; stroke-width: 0.500000; stroke-linejoin: round; stroke-linecap: butt;  opacity: 1.000000" xlink:href="#m30e32995789d870ad79a2e54c91cf9c6" x="369.600000" y="372.600000"/>
</g></g>
<g id="line2d15">
<g ><use style="fill: none; stroke: #000000; stroke-width: 0.500000; stroke-linejoin: round; stroke-linecap: butt;  opacity: 1.000000" xlink:href="#m9281cae24120827b11d5ea8a7ad3e96b" x="369.600000" y="41.400000"/>
</g></g>
<g id="text7">
<g style="fill: #000000; opacity: 1.000000" transform="translate(358.420313,385.225000)scale(0.120000)">
<use xlink:href="#c_c63e313c3da876077b62561e94932799"/>
<use xlink:href="#c_9c88a63538c7a98452673de38f845635" x="55.615234"/>
<use xlink:href="#c_fda0a0109e2b7adfa5e482b9b2d320ee" x="83.398437"/>
<use xlink:href="#c_75f775bc9f9a6adfab5172fd551e47e0" x="139.013672"/>
</g>
</g>
</g>
<g id="xtick8">
<g id="line2d16">
<g ><use style="fill: none; stroke: #000000; stroke-width: 0.500000; stroke-linejoin: round; stroke-linecap: butt;  opacity: 1.000000" xlink:href="#m30e32995789d870ad79a2e54c91cf9c6" x="419.200000" y="372.600000"/>
</g></g>
<g id="line2d17">
<g ><use style="fill: none; stroke: #000000; stroke-width: 0.500000; stroke-linejoin: round; stroke-linecap: butt;  opacity: 1.000000" xlink:href="#m9281cae24120827b11d5ea8a7ad3e96b" x="419.200000" y="41.400000"/>
</g></g>
<g id="text8">
<defs>
<path id="c_16502e6f65ec6361f518ececdfa42aec" d="M32.328125 -0.000000l0.000000 -17.140625l-31.062500 0.000000l0.000000 -8.062500l32.671875 -46.375000l7.171875 0.000000l0.000000 46.375000l9.671875 0.000000l0.000000 8.062500l-9.671875 0.000000l0.000000 17.140625zM32.328125 -25.203125l0.000000 -32.265625l-22.421875 32.265625z"/>
</defs>
<g style="fill: #000000; opacity: 1.000000" transform="translate(408.067187,385.225000)scale(0.120000)">
<use xlink:href="#c_c63e313c3da876077b62561e94932799"/>
<use xlink:href="#c_9c88a63538c7a98452673de38f845635" x="55.615234"/>
<use xlink:href="#c_16502e6f65ec6361f518ececdfa42aec" x="83.398437"/>
<use xlink:href="#c_c63e313c3da876077b62561e94932799" x="139.013672"/>
</g>
</g>
</g>
<g id="xtick9">
<g id="line2d18">
<g ><use style="fill: none; stroke: #000000; stroke-width: 0.500000; stroke-linejoin: round; stroke-linecap: butt;  opacity: 1.000000" xlink:href="#m30e32995789d870ad79a2e54c91cf9c6" x="468.800000" y="372.600000"/>
</g></g>
<g id="line2d19">
<g ><use style="fill: none; stroke: #000000; stroke-width: 0.500000; stroke-linejoin: round; stroke-linecap: butt;  opacity: 1.000000" xlink:href="#m9281cae24120827b11d5ea8a7ad3e96b" x="468.800000" y="41.400000"/>
</g></g>
<g id="text9">
<g style="fill: #000000; opacity: 1.000000" transform="translate(457.620313,385.225000)scale(0.120000)">
<use xlink:href="#c_c63e313c3da876077b62561e94932799"/>
<use xlink:href="#c_9c88a63538c7a98452673de38f845635" x="55.615234"/>
<use xlink:href="#c_16502e6f65ec6361f518ececdfa42aec" x="83.398437"/>
<use xlink:href="#c_75f775bc9f9a6adfab5172fd551e47e0" x="139.013672"/>
</g>
</g>
</g>
<g id="xtick10">
<g id="line2d20">
<g ><use style="fill: none; stroke: #000000; stroke-width: 0.500000; stroke-linejoin: round; stroke-linecap: butt;  opacity: 1.000000" xlink:href="#m30e32995789d870ad79a2e54c91cf9c6" x="518.400000" y="372.600000"/>
</g></g>
<g id="line2d21">
<g ><use style="fill: none; stroke: #000000; stroke-width: 0.500000; stroke-linejoin: round; stroke-linecap: butt;  opacity: 1.000000" xlink:href="#m9281cae24120827b11d5ea8a7ad3e96b" x="518.400000" y="41.400000"/>
</g></g>
<g id="text10">
<g style="fill: #000000; opacity: 1.000000" transform="translate(507.267187,385.225000)scale(0.120000)">
<use xlink:href="#c_c63e313c3da876077b62561e94932799"/>
<use xlink:href="#c_9c88a63538c7a98452673de38f845635" x="55.615234"/>
<use xlink:href="#c_75f775bc9f9a6adfab5172fd551e47e0" x="83.398437"/>
<use xlink:href="#c_c63e313c3da876077b62561e94932799" x="139.013672"/>
</g>
</g>
</g>
<g id="text11">
<defs>
<path id="c_bc03a93813e543a118c59fdafeacee8b" d="M20.125000 1.125000q-4.750000 0.000000 -8.437500 -2.250000q-3.671875 -2.250000 -5.687500 -6.046875q-2.000000 -3.812500 -2.000000 -8.656250q0.000000 -6.781250 3.781250 -13.421875q3.796875 -6.640625 10.062500 -10.781250q6.281250 -4.156250 13.156250 -4.156250q5.078125 0.000000 8.937500 2.656250q3.859375 2.656250 5.859375 7.078125q2.000000 4.421875 2.000000 9.453125l0.109375 6.687500q3.406250 -4.734375 5.781250 -9.828125q2.375000 -5.109375 3.640625 -10.578125q0.187500 -0.593750 0.781250 -0.593750l1.171875 0.000000q0.921875 0.000000 0.921875 0.937500q0.000000 0.093750 -0.093750 0.281250q-1.171875 4.593750 -2.937500 8.828125q-1.750000 4.218750 -4.125000 8.171875q-2.359375 3.953125 -5.140625 7.171875q0.000000 12.406250 2.875000 12.406250q1.859375 0.000000 3.046875 -1.093750q1.203125 -1.109375 2.109375 -2.718750q0.906250 -1.609375 1.140625 -1.656250l1.218750 0.000000q0.781250 0.000000 0.781250 0.984375q0.000000 2.484375 -2.859375 4.812500q-2.843750 2.312500 -5.625000 2.312500q-3.625000 0.000000 -6.015625 -2.343750q-2.390625 -2.343750 -3.265625 -6.109375q-4.687500 4.000000 -10.156250 6.234375q-5.468750 2.218750 -11.031250 2.218750M20.312500 -1.515625q10.687500 0.000000 20.515625 -8.781250q-0.062500 -0.593750 -0.156250 -1.437500q-0.093750 -0.859375 -0.093750 -0.968750l0.000000 -10.781250q0.000000 -18.125000 -9.765625 -18.125000q-5.859375 0.000000 -10.265625 5.015625q-4.390625 5.000000 -6.609375 11.968750q-2.218750 6.953125 -2.218750 12.703125q0.000000 4.359375 2.218750 7.390625q2.218750 3.015625 6.375000 3.015625"/>
</defs>
<g id="mathtext1">
<g style="fill: #000000" transform="translate(291.200000,397.381250)">
<use xlink:href="#c_bc03a93813e543a118c59fdafeacee8b" transform="translate(0.000000,-1.703125)scale(0.120000)"/>
</g>
</g>
</g>
</g>
<g id="matplotlib.axis2">
<g id="ytick1">
<g id="line2d22">
<defs><path id="m3400efa6b1638b3fea9e19e898273957" d="M0.000000 0.000000L4.000000 0.000000"/></defs>
<g ><use style="fill: none; stroke: #000000; stroke-width: 0.500000; stroke-linejoin: round; stroke-linecap: butt;  opacity: 1.000000" xlink:href="#m3400efa6b1638b3fea9e19e898273957" x="72.000000" y="372.600000"/>
</g></g>
<g id="line2d23">
<defs><path id="m20b58b2501143cb5e0a5e8f1ef6f1643" d="M0.000000 0.000000L-4.000000 0.000000"/></defs>
<g ><use style="fill: none; stroke: #000000; stroke-width: 0.500000; stroke-linejoin: round; stroke-linecap: butt;  opacity: 1.000000" xlink:href="#m20b58b2501143cb5e0a5e8f1ef6f1643" x="518.400000" y="372.600000"/>
</g></g>
<g id="text12">
<g style="fill: #000000; opacity: 1.000000" transform="translate(52.453125,376.842188)scale(0.120000)">
<use xlink:href="#c_c63e313c3da876077b62561e94932799"/>
<use xlink:href="#c_9c88a63538c7a98452673de38f845635" x="55.615234"/>
<use xlink:href="#c_a7ec7f1581c48e6603ad54008c14207a" x="83.398437"/>
</g>
</g>
</g>
<g id="ytick2">
<g id="line2d24">
<g ><use style="fill: none; stroke: #000000; stroke-width: 0.500000; stroke-linejoin: round; stroke-linecap: butt;  opacity: 1.000000" xlink:href="#m3400efa6b1638b3fea9e19e898273957" x="72.000000" y="331.200000"/>
</g></g>
<g id="line2d25">
<g ><use style="fill: none; stroke: #000000; stroke-width: 0.500000; stroke-linejoin: round; stroke-linecap: butt;  opacity: 1.000000" xlink:href="#m20b58b2501143cb5e0a5e8f1ef6f1643" x="518.400000" y="331.200000"/>
</g></g>
<g id="text13">
<g style="fill: #000000; opacity: 1.000000" transform="translate(52.375000,335.434375)scale(0.120000)">
<use xlink:href="#c_c63e313c3da876077b62561e94932799"/>
<use xlink:href="#c_9c88a63538c7a98452673de38f845635" x="55.615234"/>
<use xlink:href="#c_fda0a0109e2b7adfa5e482b9b2d320ee" x="83.398437"/>
</g>
</g>
</g>
<g id="ytick3">
<g id="line2d26">
<g ><use style="fill: none; stroke: #000000; stroke-width: 0.500000; stroke-linejoin: round; stroke-linecap: butt;  opacity: 1.000000" xlink:href="#m3400efa6b1638b3fea9e19e898273957" x="72.000000" y="289.800000"/>
</g></g>
<g id="line2d27">
<g ><use style="fill: none; stroke: #000000; stroke-width: 0.500000; stroke-linejoin: round; stroke-linecap: butt;  opacity: 1.000000" xlink:href="#m20b58b2501143cb5e0a5e8f1ef6f1643" x="518.400000" y="289.800000"/>
</g></g>
<g id="text14">
<g style="fill: #000000; opacity: 1.000000" transform="translate(52.406250,294.042188)scale(0.120000)">
<use xlink:href="#c_c63e313c3da876077b62561e94932799"/>
<use xlink:href="#c_9c88a63538c7a98452673de38f845635" x="55.615234"/>
<use xlink:href="#c_16502e6f65ec6361f518ececdfa42aec" x="83.398437"/>
</g>
</g>
</g>
<g id="ytick4">
<g id="line2d28">
<g ><use style="fill: none; stroke: #000000; stroke-width: 0.500000; stroke-linejoin: round; stroke-linecap: butt;  opacity: 1.000000" xlink:href="#m3400efa6b1638b3fea9e19e898273957" x="72.000000" y="248.400000"/>
</g></g>
<g id="line2d29">
<g ><use style="fill: none; stroke: #000000; stroke-width: 0.500000; stroke-linejoin: round; stroke-linecap: butt;  opacity: 1.000000" xlink:href="#m20b58b2501143cb5e0a5e8f1ef6f1643" x="518.400000" y="248.400000"/>
</g></g>
<g id="text15">
<g style="fill: #000000; opacity: 1.000000" transform="translate(52.312500,252.642187)scale(0.120000)">
<use xlink:href="#c_c63e313c3da876077b62561e94932799"/>
<use xlink:href="#c_9c88a63538c7a98452673de38f845635" x="55.615234"/>
<use xlink:href="#c_75f775bc9f9a6adfab5172fd551e47e0" x="83.398437"/>
</g>
</g>
</g>
<g id="ytick5">
<g id="line2d30">
<g ><use style="fill: none; stroke: #000000; stroke-width: 0.500000; stroke-linejoin: round; stroke-linecap: butt;  opacity: 1.000000" xlink:href="#m3400efa6b1638b3fea9e19e898273957" x="72.000000" y="207.000000"/>
</g></g>
<g id="line2d31">
<g ><use style="fill: none; stroke: #000000; stroke-width: 0.500000; stroke-linejoin: round; stroke-linecap: butt;  opacity: 1.000000" xlink:href="#m20b58b2501143cb5e0a5e8f1ef6f1643" x="518.400000" y="207.000000"/>
</g></g>
<g id="text16">
<defs>
<path id="c_365c0c1086255689078be262ab150854" d="M49.750000 -54.046875l-8.734375 0.671875q-1.171875 -5.171875 -3.312500 -7.515625q-3.578125 -3.765625 -8.796875 -3.765625q-4.203125 0.000000 -7.375000 2.343750q-4.140625 3.031250 -6.546875 8.843750q-2.390625 5.812500 -2.484375 16.546875q3.171875 -4.828125 7.765625 -7.171875q4.593750 -2.343750 9.625000 -2.343750q8.781250 0.000000 14.953125 6.468750q6.187500 6.468750 6.187500 16.718750q0.000000 6.750000 -2.906250 12.531250q-2.906250 5.781250 -7.984375 8.859375q-5.078125 3.078125 -11.531250 3.078125q-10.984375 0.000000 -17.921875 -8.078125q-6.921875 -8.078125 -6.921875 -26.640625q0.000000 -20.750000 7.656250 -30.171875q6.687500 -8.203125 18.015625 -8.203125q8.453125 0.000000 13.843750 4.734375q5.406250 4.734375 6.468750 13.093750M13.875000 -23.187500q0.000000 4.531250 1.921875 8.687500q1.921875 4.140625 5.390625 6.328125q3.468750 2.171875 7.281250 2.171875q5.562500 0.000000 9.562500 -4.484375q4.015625 -4.500000 4.015625 -12.218750q0.000000 -7.421875 -3.968750 -11.687500q-3.953125 -4.281250 -9.953125 -4.281250q-5.953125 0.000000 -10.109375 4.281250q-4.140625 4.265625 -4.140625 11.203125"/>
</defs>
<g style="fill: #000000; opacity: 1.000000" transform="translate(52.375000,211.242187)scale(0.120000)">
<use xlink:href="#c_c63e313c3da876077b62561e94932799"/>
<use xlink:href="#c_9c88a63538c7a98452673de38f845635" x="55.615234"/>
<use xlink:href="#c_365c0c1086255689078be262ab150854" x="83.398437"/>
</g>
</g>
</g>
<g id="ytick6">
<g id="line2d32">
<g ><use style="fill: none; stroke: #000000; stroke-width: 0.500000; stroke-linejoin: round; stroke-linecap: butt;  opacity: 1.000000" xlink:href="#m3400efa6b1638b3fea9e19e898273957" x="72.000000" y="165.600000"/>
</g></g>
<g id="line2d33">
<g ><use style="fill: none; stroke: #000000; stroke-width: 0.500000; stroke-linejoin: round; stroke-linecap: butt;  opacity: 1.000000" xlink:href="#m20b58b2501143cb5e0a5e8f1ef6f1643" x="518.400000" y="165.600000"/>
</g></g>
<g id="text17">
<defs>
<path id="c_91078e0cceee8981beb415cb2817ceed" d="M4.734375 -62.203125l0.000000 -8.453125l46.343750 0.000000l0.000000 6.843750q-6.843750 7.265625 -13.562500 19.328125q-6.703125 12.062500 -10.359375 24.812500q-2.640625 8.984375 -3.375000 19.671875l-9.031250 0.000000q0.140625 -8.453125 3.312500 -20.406250q3.171875 -11.968750 9.109375 -23.078125q5.937500 -11.109375 12.625000 -18.718750z"/>
</defs>
<g style="fill: #000000; opacity: 1.000000" transform="translate(52.375000,169.842188)scale(0.120000)">
<use xlink:href="#c_c63e313c3da876077b62561e94932799"/>
<use xlink:href="#c_9c88a63538c7a98452673de38f845635" x="55.615234"/>
<use xlink:href="#c_91078e0cceee8981beb415cb2817ceed" x="83.398437"/>
</g>
</g>
</g>
<g id="ytick7">
<g id="line2d34">
<g ><use style="fill: none; stroke: #000000; stroke-width: 0.500000; stroke-linejoin: round; stroke-linecap: butt;  opacity: 1.000000" xlink:href="#m3400efa6b1638b3fea9e19e898273957" x="72.000000" y="124.200000"/>
</g></g>
<g id="line2d35">
<g ><use style="fill: none; stroke: #000000; stroke-width: 0.500000; stroke-linejoin: round; stroke-linecap: butt;  opacity: 1.000000" xlink:href="#m20b58b2501143cb5e0a5e8f1ef6f1643" x="518.400000" y="124.200000"/>
</g></g>
<g id="text18">
<defs>
<path id="c_9e21411eefed339632dc4e534c173910" d="M17.671875 -38.812500q-5.468750 -2.015625 -8.109375 -5.718750q-2.625000 -3.718750 -2.625000 -8.890625q0.000000 -7.812500 5.609375 -13.125000q5.625000 -5.328125 14.937500 -5.328125q9.375000 0.000000 15.093750 5.453125q5.718750 5.437500 5.718750 13.250000q0.000000 4.984375 -2.625000 8.671875q-2.609375 3.671875 -7.921875 5.687500q6.593750 2.140625 10.031250 6.937500q3.437500 4.781250 3.437500 11.421875q0.000000 9.171875 -6.500000 15.421875q-6.484375 6.250000 -17.078125 6.250000q-10.593750 0.000000 -17.093750 -6.265625q-6.500000 -6.281250 -6.500000 -15.656250q0.000000 -6.984375 3.546875 -11.687500q3.546875 -4.718750 10.078125 -6.421875M15.921875 -53.718750q0.000000 5.078125 3.265625 8.312500q3.281250 3.218750 8.500000 3.218750q5.078125 0.000000 8.328125 -3.187500q3.250000 -3.203125 3.250000 -7.843750q0.000000 -4.843750 -3.359375 -8.140625q-3.343750 -3.296875 -8.312500 -3.296875q-5.031250 0.000000 -8.359375 3.234375q-3.312500 3.218750 -3.312500 7.703125M13.093750 -20.656250q0.000000 3.765625 1.781250 7.281250q1.781250 3.515625 5.296875 5.453125q3.515625 1.921875 7.562500 1.921875q6.296875 0.000000 10.390625 -4.046875q4.109375 -4.062500 4.109375 -10.312500q0.000000 -6.343750 -4.218750 -10.500000q-4.218750 -4.156250 -10.578125 -4.156250q-6.203125 0.000000 -10.281250 4.109375q-4.062500 4.093750 -4.062500 10.250000"/>
</defs>
<g style="fill: #000000; opacity: 1.000000" transform="translate(52.359375,128.442187)scale(0.120000)">
<use xlink:href="#c_c63e313c3da876077b62561e94932799"/>
<use xlink:href="#c_9c88a63538c7a98452673de38f845635" x="55.615234"/>
<use xlink:href="#c_9e21411eefed339632dc4e534c173910" x="83.398437"/>
</g>
</g>
</g>
<g id="ytick8">
<g id="line2d36">
<g ><use style="fill: none; stroke: #000000; stroke-width: 0.500000; stroke-linejoin: round; stroke-linecap: butt;  opacity: 1.000000" xlink:href="#m3400efa6b1638b3fea9e19e898273957" x="72.000000" y="82.800000"/>
</g></g>
<g id="line2d37">
<g ><use style="fill: none; stroke: #000000; stroke-width: 0.500000; stroke-linejoin: round; stroke-linecap: butt;  opacity: 1.000000" xlink:href="#m20b58b2501143cb5e0a5e8f1ef6f1643" x="518.400000" y="82.800000"/>
</g></g>
<g id="text19">
<defs>
<path id="c_e3a56b65072300ac8dd00aa82c40eaff" d="M5.468750 -16.546875l8.453125 -0.781250q1.062500 5.953125 4.093750 8.640625q3.031250 2.687500 7.765625 2.687500q4.046875 0.000000 7.093750 -1.859375q3.062500 -1.859375 5.015625 -4.953125q1.953125 -3.109375 3.265625 -8.375000q1.328125 -5.281250 1.328125 -10.750000q0.000000 -0.578125 -0.046875 -1.750000q-2.640625 4.187500 -7.203125 6.812500q-4.562500 2.609375 -9.890625 2.609375q-8.890625 0.000000 -15.046875 -6.437500q-6.140625 -6.453125 -6.140625 -17.000000q0.000000 -10.890625 6.421875 -17.531250q6.421875 -6.640625 16.078125 -6.640625q6.984375 0.000000 12.765625 3.765625q5.796875 3.750000 8.796875 10.718750q3.000000 6.953125 3.000000 20.140625q0.000000 13.718750 -2.984375 21.843750q-2.968750 8.125000 -8.859375 12.375000q-5.875000 4.250000 -13.781250 4.250000q-8.406250 0.000000 -13.734375 -4.656250q-5.312500 -4.671875 -6.390625 -13.109375M41.453125 -48.140625q0.000000 -7.578125 -4.031250 -12.015625q-4.015625 -4.437500 -9.687500 -4.437500q-5.859375 0.000000 -10.203125 4.781250q-4.343750 4.781250 -4.343750 12.406250q0.000000 6.828125 4.125000 11.109375q4.125000 4.265625 10.171875 4.265625q6.109375 0.000000 10.031250 -4.265625q3.937500 -4.281250 3.937500 -11.843750"/>
</defs>
<g style="fill: #000000; opacity: 1.000000" transform="translate(52.359375,87.042187)scale(0.120000)">
<use xlink:href="#c_c63e313c3da876077b62561e94932799"/>
<use xlink:href="#c_9c88a63538c7a98452673de38f845635" x="55.615234"/>
<use xlink:href="#c_e3a56b65072300ac8dd00aa82c40eaff" x="83.398437"/>
</g>
</g>
</g>
<g id="ytick9">
<g id="line2d38">
<g ><use style="fill: none; stroke: #000000; stroke-width: 0.500000; stroke-linejoin: round; stroke-linecap: butt;  opacity: 1.000000" xlink:href="#m3400efa6b1638b3fea9e19e898273957" x="72.000000" y="41.400000"/>
</g></g>
<g id="line2d39">
<g ><use style="fill: none; stroke: #000000; stroke-width: 0.500000; stroke-linejoin: round; stroke-linecap: butt;  opacity: 1.000000" xlink:href="#m20b58b2501143cb5e0a5e8f1ef6f1643" x="518.400000" y="41.400000"/>
</g></g>
<g id="text20">
<g style="fill: #000000; opacity: 1.000000" transform="translate(53.218750,45.642187)scale(0.120000)">
<use xlink:href="#c_72c59cf671978aab4f9757f107511077"/>
<use xlink:href="#c_9c88a63538c7a98452673de38f845635" x="55.615234"/>
<use xlink:href="#c_c63e313c3da876077b62561e94932799" x="83.398437"/>
</g>
</g>
</g>
<g id="text21">
<defs>
<path id="c_ddaa5e367218a470357296a7ba545dfe" d="M40.437500 -6.390625q-4.890625 4.140625 -9.406250 5.859375q-4.515625 1.703125 -9.687500 1.703125q-8.546875 0.000000 -13.140625 -4.171875q-4.593750 -4.171875 -4.593750 -10.671875q0.000000 -3.812500 1.734375 -6.953125q1.734375 -3.156250 4.546875 -5.062500q2.812500 -1.906250 6.328125 -2.875000q2.578125 -0.687500 7.812500 -1.328125q10.640625 -1.265625 15.671875 -3.015625q0.046875 -1.812500 0.046875 -2.296875q0.000000 -5.375000 -2.500000 -7.578125q-3.359375 -2.968750 -10.000000 -2.968750q-6.203125 0.000000 -9.156250 2.171875q-2.953125 2.171875 -4.375000 7.687500l-8.593750 -1.171875q1.171875 -5.515625 3.859375 -8.906250q2.687500 -3.390625 7.765625 -5.218750q5.078125 -1.843750 11.765625 -1.843750q6.640625 0.000000 10.781250 1.562500q4.156250 1.562500 6.109375 3.937500q1.953125 2.359375 2.734375 5.984375q0.437500 2.234375 0.437500 8.093750l0.000000 11.718750q0.000000 12.265625 0.562500 15.515625q0.562500 3.234375 2.234375 6.218750l-9.187500 0.000000q-1.359375 -2.734375 -1.750000 -6.390625M39.703125 -26.031250q-4.796875 1.953125 -14.359375 3.328125q-5.421875 0.781250 -7.671875 1.765625q-2.234375 0.968750 -3.468750 2.843750q-1.218750 1.875000 -1.218750 4.171875q0.000000 3.515625 2.656250 5.859375q2.671875 2.343750 7.796875 2.343750q5.078125 0.000000 9.031250 -2.218750q3.953125 -2.218750 5.812500 -6.078125q1.421875 -2.984375 1.421875 -8.781250z"/>
<path id="c_ceddf5fc3ced9b3e32f3c383a310203a" d="M20.750000 1.218750l-20.750000 -74.015625l7.078125 0.000000l20.703125 74.015625z"/>
<path id="c_225fdc3440e1a904be9e19c1a2b12aa8" d="M7.328125 -0.000000l0.000000 -71.578125l9.468750 0.000000l0.000000 63.125000l35.250000 0.000000l0.000000 8.453125z"/>
</defs>
<g style="fill: #000000; opacity: 1.000000" transform="translate(47.312500,214.765625)rotate(-90.0)scale(0.120000)">
<use xlink:href="#c_ddaa5e367218a470357296a7ba545dfe"/>
<use xlink:href="#c_ceddf5fc3ced9b3e32f3c383a310203a" x="55.615234"/>
<use xlink:href="#c_225fdc3440e1a904be9e19c1a2b12aa8" x="83.398437"/>
</g>
</g>
</g>
<g id="patch3">
<path style="fill: none; stroke: #000000; stroke-width: 1.000000; stroke-linejoin: round; stroke-linecap: square;  opacity: 1.000000"  d="M72.000000 41.400000L518.400000 41.400000"/>
</g>
<g id="patch4">
<path style="fill: none; stroke: #000000; stroke-width: 1.000000; stroke-linejoin: round; stroke-linecap: square;  opacity: 1.000000"  d="M518.400000 372.600000L518.400000 41.400000"/>
</g>
<g id="patch5">
<path style="fill: none; stroke: #000000; stroke-width: 1.000000; stroke-linejoin: round; stroke-linecap: square;  opacity: 1.000000"  d="M72.000000 372.600000L518.400000 372.600000"/>
</g>
<g id="patch6">
<path style="fill: none; stroke: #000000; stroke-width: 1.000000; stroke-linejoin: round; stroke-linecap: square;  opacity: 1.000000"  d="M72.000000 372.600000L72.000000 41.400000"/>
</g>
</g>
</g>
</svg>
